# xmcd
# 
# Track frame offsets:
#     150
#     22452
#     45185
#     68572
#     88990
#     113235
#     135565
#     154407
# 
# Disc length: 2315
# 
# Revision: 6
# Processed by: cddbd v1.5.2PL0 Copyright (c) Steve Scherf et al.
# Submitted via: BonkEnc v1.0.8
# 
DISCID=6a090908
DTITLE=Sabrina Setlur - Freisein
DYEAR=1997
DGENRE=Hip-Hop
TTITLE0=Freisein (feat. Xavier Naidoo) (Director's Cut)
TTITLE1=Freisein (feat. Xavier Naidoo) (Namlook Slomo Mix)
TTITLE2=Freisein (feat. Xavier Naidoo) (Live and Unplugged At The Latin Lounge)
TTITLE3=Freisein (feat. Xavier Naidoo) (Blackzone Mix)
TTITLE4=Freisein (feat. Xavier Naidoo) (Nachtschicht Am Meer)
TTITLE5=Freisein (feat. Xavier Naidoo) (Nachtschicht In Der Stadt)
TTITLE6=Freisein (feat. Xavier Naidoo) (Director's Video Edit)
TTITLE7=Freisein (feat. Xavier Naidoo) (Nachtschicht Am Meer Radio Edit)
EXTD=Maxi, Mixes YEAR: 1997
EXTT0=
EXTT1=Pete Namlook
EXTT2=Ali Neander and Achim Schnall
EXTT3=
EXTT4=
EXTT5=
EXTT6=
EXTT7=
PLAYORDER=
